<?xml version="1.0" standalone="no"?>
<!DOCTYPE svg PUBLIC "-//W3C//DTD SVG 20010904//EN"
 "http://www.w3.org/TR/2001/REC-SVG-20010904/DTD/svg10.dtd">
<svg version="1.0" xmlns="http://www.w3.org/2000/svg"
 width="600.000000pt" height="600.000000pt" viewBox="0 0 600.000000 600.000000"
 preserveAspectRatio="xMidYMid meet">
<metadata>
Created by potrace 1.14, written by Peter Selinger 2001-2017
</metadata>
<g transform="translate(0.000000,600.000000) scale(0.100000,-0.100000)"
fill="#000000" stroke="none">
<path d="M3470 4654 c-107 -18 -172 -53 -313 -168 -81 -65 -115 -103 -145
-161 -27 -50 -46 -75 -59 -75 -6 0 -32 21 -60 48 -57 54 -108 86 -184 113 -82
30 -120 39 -172 39 -42 0 -52 -4 -78 -32 -33 -37 -37 -72 -10 -107 14 -18 36
-28 87 -37 148 -28 235 -77 298 -168 27 -39 39 -68 40 -94 l1 -37 -235 -2
c-256 -2 -395 -15 -443 -39 -17 -9 -43 -20 -58 -24 -45 -13 -194 -118 -245
-173 -27 -29 -77 -90 -111 -137 -34 -47 -71 -97 -82 -112 -12 -14 -21 -30 -21
-35 0 -5 -11 -24 -25 -43 -14 -19 -25 -41 -25 -50 0 -9 -11 -31 -25 -50 -14
-19 -25 -45 -25 -59 0 -14 -12 -44 -25 -66 -15 -24 -25 -55 -25 -77 0 -21 -10
-61 -22 -90 -22 -50 -23 -66 -23 -313 0 -248 1 -262 23 -312 12 -28 22 -67 22
-85 0 -18 12 -51 25 -73 14 -22 25 -50 25 -61 0 -12 8 -32 19 -45 10 -13 22
-35 26 -49 4 -14 17 -41 29 -60 13 -19 37 -57 54 -85 87 -141 254 -333 353
-406 69 -52 192 -119 216 -119 8 0 32 -9 54 -20 62 -32 239 -44 669 -44 430 0
607 12 669 44 22 11 47 20 55 20 16 0 123 55 146 75 8 7 27 19 41 26 64 33
239 218 322 339 54 79 87 131 87 139 0 4 9 16 20 26 10 9 25 34 31 54 7 20 20
47 30 60 11 13 19 32 19 43 0 10 11 41 25 68 14 27 25 59 25 71 0 13 12 56 26
98 26 74 26 77 22 316 -4 218 -6 245 -26 293 -12 29 -22 65 -22 80 0 15 -11
50 -25 77 -13 28 -25 58 -25 69 0 10 -8 33 -19 50 -10 17 -22 42 -26 56 -4 14
-18 38 -31 53 -13 16 -24 34 -24 40 0 18 -94 151 -176 248 -118 141 -309 251
-462 268 -46 5 -86 12 -89 15 -10 9 14 47 78 126 32 39 59 77 59 84 0 7 11 27
25 46 14 19 25 44 25 56 0 12 9 43 21 69 25 55 21 95 -13 172 -30 64 -79 106
-150 127 -63 18 -65 18 -168 0z m139 -183 c19 -12 8 -129 -16 -172 -10 -17
-24 -43 -32 -57 -24 -45 -155 -168 -212 -199 -31 -17 -81 -36 -112 -42 -32 -6
-66 -15 -76 -21 -30 -16 -59 -12 -71 9 -13 25 -5 69 33 166 28 71 41 90 118
168 48 48 107 96 131 107 24 12 54 27 68 35 28 16 146 20 169 6z m51 -686 c25
-4 61 -15 80 -25 19 -9 50 -20 69 -24 19 -3 42 -12 50 -20 40 -34 198 -194
219 -221 12 -16 33 -44 47 -61 14 -18 25 -36 25 -42 0 -5 9 -21 20 -35 12 -14
26 -41 32 -59 6 -18 17 -40 24 -48 7 -9 18 -38 24 -65 6 -27 18 -57 26 -66 8
-9 19 -47 25 -84 5 -37 12 -72 16 -78 16 -26 26 -112 30 -258 3 -138 2 -162
-16 -207 -11 -28 -23 -74 -27 -104 -4 -29 -18 -73 -31 -97 -12 -24 -23 -49
-23 -56 0 -12 -55 -123 -84 -170 -57 -90 -76 -117 -132 -185 -89 -108 -221
-231 -283 -263 -29 -15 -88 -40 -130 -55 l-76 -27 -545 0 -545 0 -85 29 c-47
16 -92 35 -100 42 -8 6 -26 15 -40 19 -14 4 -65 46 -113 94 -154 149 -252 279
-334 440 -18 36 -33 70 -33 76 0 5 -11 31 -25 57 -14 26 -25 58 -25 72 0 14
-11 60 -26 104 -23 74 -25 89 -21 233 4 146 11 199 36 279 6 19 11 49 11 67 0
18 11 53 25 79 14 26 25 57 25 69 0 12 8 33 19 46 10 13 22 35 26 49 4 14 17
41 29 60 12 19 26 42 31 51 44 72 82 117 169 203 129 127 126 125 167 132 19
4 49 15 66 26 24 14 61 21 135 26 138 9 1211 7 1268 -3z"/>
<path d="M3784 3570 c-25 -10 -64 -57 -64 -77 0 -8 28 -49 63 -91 79 -97 127
-164 127 -178 0 -6 8 -18 18 -28 11 -9 24 -34 31 -55 16 -57 61 -101 101 -101
53 0 126 92 91 115 -5 3 -15 22 -22 43 -6 20 -19 46 -29 57 -10 11 -21 31 -25
45 -9 28 -21 46 -122 169 -48 58 -84 93 -104 100 -37 13 -37 13 -65 1z"/>
<path d="M4068 2980 c-26 -27 -29 -35 -23 -68 12 -68 66 -97 124 -68 60 32 67
86 18 134 -43 41 -79 42 -119 2z"/>
</g>
</svg>
